<?xml version="1.0" encoding="UTF-8"?>
<svg version="1.1" xmlns="http://www.w3.org/2000/svg" width="360" height="360">
<path d="M0 0 C1.07037504 -0.00523668 2.14075008 -0.01047336 3.24356073 -0.01586872 C6.81283838 -0.03081208 10.38197196 -0.03157264 13.95127869 -0.03224182 C16.51774841 -0.03986719 19.08421587 -0.04829534 21.65068054 -0.0574646 C28.61174316 -0.0802405 35.57277515 -0.08822734 42.53386998 -0.09329104 C46.88779287 -0.09655699 51.241707 -0.10308488 55.59562492 -0.11029243 C67.67171091 -0.12984942 79.7477888 -0.14625867 91.82389164 -0.14916897 C92.59553232 -0.14935654 93.36717299 -0.14954411 94.16219672 -0.14973736 C95.72621882 -0.15010359 97.29024092 -0.15046729 98.85426302 -0.15082847 C99.63055065 -0.15101128 100.40683828 -0.1511941 101.20664978 -0.15138245 C102.37251759 -0.15165327 102.37251759 -0.15165327 103.56193828 -0.15192956 C116.1441943 -0.15546805 128.72627884 -0.18247404 141.30847544 -0.21988034 C154.25426882 -0.25805673 167.19997732 -0.27732713 180.14582819 -0.27762848 C187.40322366 -0.27821099 194.66041457 -0.28656856 201.91775703 -0.31562614 C208.74936867 -0.34285515 215.58057071 -0.3439659 222.41221619 -0.3279705 C224.90981365 -0.32616245 227.40743475 -0.33278799 229.90498161 -0.34878922 C250.99262416 -0.47558076 268.69971149 1.85280593 284.6815033 16.81712341 C295.50378918 28.08735159 300.35501677 40.87517893 300.30830383 56.27870178 C300.31283495 57.37806954 300.31736606 58.47743729 300.32203448 59.61011922 C300.33468199 63.2893523 300.33305784 66.96843742 300.33140564 70.64768982 C300.33739075 73.28769987 300.34413988 75.9276984 300.35176086 78.56770325 C300.36834902 84.99271567 300.37386946 91.41769139 300.37498562 97.84272344 C300.37593735 103.06889973 300.38005387 108.29506395 300.38638687 113.52123642 C300.40399509 128.35516456 300.41322666 143.1890638 300.41172592 158.02300246 C300.41164601 158.82211804 300.4115661 159.62123362 300.41148376 160.44456482 C300.411402 161.24466226 300.41132024 162.0447597 300.411236 162.86910252 C300.41042373 175.82531072 300.42954768 188.78140249 300.4577605 201.73757704 C300.48653484 215.05732586 300.50029822 228.377018 300.49857295 241.69679868 C300.4979105 249.16815634 300.50333833 256.63939202 300.52492905 264.11072159 C300.5432011 270.47422607 300.54743924 276.83755331 300.5339102 283.20107277 C300.52741 286.44330087 300.52935778 289.68512145 300.5446167 292.92733002 C300.63429239 313.30848038 298.99735698 329.45483756 284.49009705 345.03977966 C267.80993503 360.25676957 250.49840584 360.86599191 228.97032166 360.79173279 C226.32779023 360.79715894 223.68530369 360.80414093 221.04278564 360.81297302 C214.63491882 360.83067749 208.22724033 360.82695474 201.81936639 360.81532246 C196.6080935 360.80625718 191.39687308 360.80507744 186.18559456 360.80941772 C185.44147307 360.81003066 184.69735158 360.81064359 183.93068095 360.81127509 C182.41861965 360.8125541 180.90655837 360.81385096 179.3944971 360.81516546 C165.24557407 360.82654739 151.09675502 360.81349474 136.94784904 360.79196399 C124.82800926 360.77409147 112.70832275 360.77720299 100.58848572 360.79563904 C86.48567278 360.81708169 72.38295074 360.82545285 58.28012377 360.81318998 C56.77419795 360.81191589 55.26827212 360.81065841 53.76234627 360.80941772 C52.65116669 360.80849207 52.65116669 360.80849207 51.51753904 360.80754772 C46.31673359 360.80410526 41.11598619 360.80989916 35.91518974 360.81933594 C29.57117963 360.83059499 23.2273673 360.82743421 16.88337963 360.80621296 C13.6513736 360.79575513 10.41976159 360.79367065 7.18774796 360.80480957 C3.67374051 360.81580076 0.16064776 360.80195705 -3.353302 360.78208923 C-4.36003639 360.79101212 -5.36677077 360.79993501 -6.40401226 360.80912828 C-20.45847335 360.65584188 -33.67831327 354.59010956 -43.8341217 344.96165466 C-55.15295833 332.88549985 -60.27295159 317.71031502 -60.23327637 301.39732361 C-60.23851305 300.32371944 -60.24374972 299.25011527 -60.24914509 298.14397764 C-60.26410893 294.55777466 -60.26484946 290.97171481 -60.26551819 287.38548279 C-60.27314224 284.80930848 -60.28157016 282.23313643 -60.29074097 279.65696716 C-60.31353318 272.6648546 -60.32150569 265.6727725 -60.32656741 258.68062782 C-60.32983189 254.30778175 -60.33635897 249.9349444 -60.3435688 245.56210327 C-60.36312905 233.43544551 -60.37953601 221.30879583 -60.38244534 209.18212128 C-60.38263291 208.40697787 -60.38282048 207.63183446 -60.38301373 206.83320186 C-60.38337996 205.26204395 -60.38374366 203.69088605 -60.38410484 202.11972815 C-60.38428765 201.33988812 -60.38447046 200.56004809 -60.38465881 199.75657654 C-60.38483936 198.97577522 -60.38501991 198.1949739 -60.38520593 197.39051193 C-60.38874372 184.75322716 -60.41574385 172.11611321 -60.4531567 159.47888762 C-60.49133285 146.47888534 -60.5106035 133.47896759 -60.51090485 120.47890806 C-60.51148741 113.19019893 -60.51984856 105.90169347 -60.54890251 98.61303711 C-60.57613129 91.75107057 -60.57724243 84.88951182 -60.56124687 78.0275116 C-60.55943872 75.51862712 -60.56606522 73.00971911 -60.58206558 70.50088501 C-60.68888773 52.65321716 -59.67114693 37.2999414 -48.9591217 22.27415466 C-48.2578717 21.26352966 -47.5566217 20.25290466 -46.8341217 19.21165466 C-34.58316498 5.43422091 -17.8642139 -0.04374774 0 0 Z M36.24518967 65.55913925 C35.08317212 68.17880691 34.66912373 69.73322995 34.68011475 72.55792236 C34.67392876 73.79249176 34.67392876 73.79249176 34.6676178 75.05200195 C34.67840363 75.94104721 34.68918945 76.83009247 34.70030212 77.74607849 C34.69986404 78.69290497 34.69942596 79.63973145 34.69897461 80.61524963 C34.70106067 83.73743987 34.72438349 86.85908975 34.74790955 89.98118591 C34.75350614 92.14880073 34.75777594 94.31641934 34.76077271 96.48403931 C34.77221644 102.18379732 34.80167979 107.8833253 34.83488464 113.58299255 C34.86559555 119.40123889 34.87928024 125.21952247 34.89439392 131.03782654 C34.92654975 142.45003688 34.9777406 153.86207662 35.0408783 165.27415466 C33.76470642 165.25095154 32.48853455 165.22774841 31.1736908 165.20384216 C29.5044258 165.18508638 27.83515449 165.16688597 26.1658783 165.14915466 C25.32412048 165.13239685 24.48236267 165.11563904 23.61509705 165.09837341 C22.80943298 165.0919281 22.00376892 165.08548279 21.1736908 165.07884216 C20.0582489 165.06313171 20.0582489 165.06313171 18.92027283 165.04710388 C16.79597594 165.10759497 16.79597594 165.10759497 15.0408783 167.27415466 C14.84198013 170.27650836 14.76823982 173.18665564 14.78208923 176.19017029 C14.77858459 177.11383896 14.77507996 178.03750763 14.77146912 178.98916626 C14.76264153 182.05298806 14.76850459 185.11658037 14.7752533 188.18040466 C14.77390694 190.30267888 14.77196666 192.4249528 14.76945496 194.54722595 C14.7665023 198.99936351 14.7708059 203.45142093 14.78013611 207.90354919 C14.79153069 213.62047454 14.78497198 219.33721211 14.77299118 225.05413055 C14.76577641 229.43776371 14.76805875 233.82135209 14.77324677 238.20498657 C14.77458432 240.31339541 14.77293186 242.42180826 14.76828766 244.5302124 C14.76322873 247.47296473 14.77092375 250.4154097 14.78208923 253.35813904 C14.77804077 254.23612656 14.77399231 255.11411407 14.76982117 256.01870728 C14.58847528 260.62540446 14.58847528 260.62540446 17.0408783 264.27415466 C18.97768966 264.55069854 18.97768966 264.55069854 21.1736908 264.46946716 C21.97935486 264.46302185 22.78501892 264.45657654 23.61509705 264.44993591 C24.87773376 264.42479919 24.87773376 264.42479919 26.1658783 264.39915466 C27.44011658 264.38561951 27.44011658 264.38561951 28.74009705 264.37181091 C30.84047713 264.34821114 32.94071274 264.31233949 35.0408783 264.27415466 C35.03040466 265.13170349 35.01993103 265.98925232 35.00914001 266.87278748 C34.97499534 270.0633698 34.94994871 273.25385878 34.93101501 276.44456482 C34.92097577 277.82382782 34.90734152 279.20306963 34.88999939 280.58226013 C34.86566076 282.56800606 34.85544575 284.55390916 34.8455658 286.53977966 C34.83509216 287.7337738 34.82461853 288.92776794 34.81382751 290.15794373 C35.03217816 293.15474763 35.37053563 294.81005108 37.0408783 297.27415466 C39.87302102 298.69022602 42.24307539 298.40013358 45.41134644 298.40113831 C46.40303789 298.40347829 46.40303789 298.40347829 47.41476351 298.40586555 C49.64033651 298.40986888 51.86584184 298.40668846 54.09141541 298.40354919 C55.68288208 298.40490354 57.27434844 298.40668367 58.86581421 298.40885925 C63.19634539 298.41342995 67.52685283 298.41164541 71.85738444 298.40848017 C76.38303235 298.40595426 80.90867818 298.40829479 85.43432617 298.40986633 C93.03649766 298.41168754 100.63865945 298.4092832 108.24082947 298.40452576 C117.03630792 298.39908519 125.83176319 298.4008445 134.62724108 298.40635216 C142.17036765 298.41088702 149.71348724 298.41153195 157.25661474 298.40891349 C161.76544008 298.40735253 166.27425451 298.40715201 170.78307915 298.41044998 C175.02243322 298.41333402 179.26175734 298.41134315 183.50110817 298.40555573 C185.05919215 298.40423091 186.61727864 298.40461754 188.17536163 298.40681839 C190.29808421 298.40954084 192.42071014 298.40613526 194.54342651 298.40113831 C195.7327072 298.40076128 196.9219879 298.40038425 198.1473074 298.3999958 C201.10948067 298.40390384 201.10948067 298.40390384 204.0408783 297.27415466 C205.52767554 294.30056017 205.15200435 291.61116287 205.13853455 288.29759216 C205.1371196 287.61234467 205.13570465 286.92709717 205.13424683 286.22108459 C205.12864504 284.03039706 205.11609236 281.83981136 205.1033783 279.64915466 C205.09836352 278.16478114 205.09380057 276.68040601 205.08970642 275.19602966 C205.07867507 271.55537151 205.06140929 267.91477302 205.0408783 264.27415466 C205.88851746 264.28986511 205.88851746 264.28986511 206.75328064 264.30589294 C209.30743482 264.34740255 211.86151812 264.37346426 214.4158783 264.39915466 C215.30533142 264.41591248 216.19478455 264.43267029 217.1111908 264.44993591 C217.96197205 264.45638123 218.8127533 264.46282654 219.6893158 264.46946716 C220.47483826 264.4799408 221.26036072 264.49041443 222.06968689 264.50120544 C224.2753433 264.45405593 224.2753433 264.45405593 226.0408783 262.27415466 C226.24503029 259.2720389 226.32401191 256.36179389 226.3155365 253.35813904 C226.32064743 252.43447037 226.32575836 251.5108017 226.33102417 250.55914307 C226.34496408 247.49533167 226.34396025 244.43174407 226.34165955 241.36790466 C226.34554375 239.24563004 226.34987785 237.1233562 226.35464478 235.00108337 C226.36211624 230.54895001 226.36180878 226.09689593 226.35655212 221.64476013 C226.35075304 215.927774 226.36769474 210.21111138 226.3908968 204.49417877 C226.40559783 200.11054066 226.40651086 195.72698114 226.40338707 191.34332275 C226.40390201 189.23490762 226.40917181 187.12648828 226.41919899 185.01809692 C226.43147734 182.07523807 226.42482392 179.13301821 226.41319275 176.19017029 C226.42083649 175.31218277 226.42848022 174.43419525 226.43635559 173.52960205 C226.44868255 170.86756845 226.44868255 170.86756845 226.0408783 167.27415466 C222.94002259 165.20691753 222.31156149 165.02918043 218.81040955 165.07884216 C218.00796814 165.08528748 217.20552673 165.09173279 216.37876892 165.09837341 C215.54539001 165.11513123 214.71201111 165.13188904 213.8533783 165.14915466 C212.58590759 165.16268982 212.58590759 165.16268982 211.29283142 165.17649841 C209.20872587 165.20004763 207.12476613 165.23591819 205.0408783 165.27415466 C205.12082031 164.52724365 205.20076233 163.78033264 205.28312683 163.01078796 C206.02062946 155.78473965 206.55938942 148.57785081 206.90611649 141.32339859 C207.09058034 137.59481506 207.33641196 133.89822497 207.75669861 130.18821716 C209.71410356 112.35907572 206.74153638 98.42893823 195.43936157 84.10794067 C183.31476446 69.9230858 170.56635838 61.90434935 151.8062942 60.17225146 C137.32103674 59.04062356 122.76119223 59.65873498 108.27248609 60.39845407 C100.6439048 60.77842669 93.01587143 60.90890014 85.37965858 61.03637397 C78.82689843 61.15350779 72.27543258 61.32865535 65.72447205 61.52024841 C64.67891462 61.5506415 64.67891462 61.5506415 63.61223483 61.58164859 C59.01745076 61.72100816 54.42730606 61.91490664 49.83555603 62.13523865 C48.09915108 62.1931105 48.09915108 62.1931105 46.32766724 62.25215149 C45.27331482 62.31105057 44.2189624 62.36994965 43.13265991 62.43063354 C42.21614371 62.47278205 41.29962751 62.51493055 40.3553381 62.55835629 C37.82763368 63.09979621 37.82763368 63.09979621 36.24518967 65.55913925 Z " fill="#E54918" transform="translate(59.95912170410156,-0.2741546630859375)"/>
<path d="M0 0 C38.61 0 77.22 0 117 0 C117.495 7.92 117.495 7.92 118 16 C118.99 18.31 119.98 20.62 121 23 C121.28875 23.763125 121.5775 24.52625 121.875 25.3125 C123.49375516 27.74063275 125.26353995 28.10905952 128 29 C129.65 29.66 131.3 30.32 133 31 C138.28 31.33 143.56 31.66 149 32 C149 51.8 149 71.6 149 92 C99.83 92 50.66 92 0 92 C0 61.64 0 31.28 0 0 Z " fill="#E24B1C" transform="translate(106,73)"/>
<path d="M0 0 C49.17 0 98.34 0 149 0 C149 7.59 149 15.18 149 23 C145.37818225 23.90545444 142.70654154 24.12344857 139.01422119 24.12025452 C137.7886702 24.12162918 136.5631192 24.12300385 135.3004303 24.12442017 C133.94540381 24.12088128 132.59037756 24.11724648 131.23535156 24.11352539 C129.80620831 24.11324327 128.37706492 24.11340174 126.94792175 24.1139679 C123.07017042 24.1142549 119.19245 24.10837385 115.31470585 24.10139394 C111.26146158 24.09514424 107.20821661 24.09455532 103.15496826 24.09336853 C95.48045452 24.09025999 87.80595502 24.08205301 80.13144755 24.07201904 C71.39391719 24.06084311 62.65638615 24.05534372 53.91885042 24.05032361 C35.94589198 24.03987002 17.97294766 24.02207844 0 24 C0 16.08 0 8.16 0 0 Z " fill="#E04B1D" transform="translate(106,264)"/>
<path d="M0 0 C6.93 0.495 6.93 0.495 14 1 C15.00598393 4.74848774 16.00500382 8.49859547 17 12.25 C17.28617188 13.31347656 17.57234375 14.37695312 17.8671875 15.47265625 C18.27324219 17.00986328 18.27324219 17.00986328 18.6875 18.578125 C18.93886719 19.52075195 19.19023437 20.46337891 19.44921875 21.43457031 C20 24 20 24 20 28 C20.66 28 21.32 28 22 28 C22.14695313 27.06994141 22.14695313 27.06994141 22.296875 26.12109375 C23.27284868 20.34097379 24.47061282 14.62719188 25.875 8.9375 C26.18179688 7.66777344 26.48859375 6.39804688 26.8046875 5.08984375 C28 2 28 2 32 0 C35.3 0 38.6 0 42 0 C42 14.85 42 29.7 42 45 C39.69 45 37.38 45 35 45 C33.16780354 43.16780354 33.76098672 40.24286259 33.68359375 37.77734375 C33.64548584 36.64288818 33.60737793 35.50843262 33.56811523 34.33959961 C33.52501221 32.88690674 33.48190918 31.43421387 33.4375 29.9375 C33.293125 25.338125 33.14875 20.73875 33 16 C30.69 25.24 28.38 34.48 26 44 C20 45 20 45 17.74511719 44.44384766 C15.14689464 42.29417109 14.86684565 40.14432632 14.078125 36.8984375 C13.80387695 35.80708496 13.52962891 34.71573242 13.24707031 33.59130859 C12.75352051 31.50423584 12.75352051 31.50423584 12.25 29.375 C11.1775 24.96125 10.105 20.5475 9 16 C8.67 25.24 8.34 34.48 8 44 C4 45 4 45 0 44 C0 29.48 0 14.96 0 0 Z " fill="#D1633E" transform="translate(180,192)"/>
<path d="M0 0 C2.64 0 5.28 0 8 0 C8.33 5.61 8.66 11.22 9 17 C14.28 17.33 19.56 17.66 25 18 C25.33 12.06 25.66 6.12 26 0 C28.97 0.33 31.94 0.66 35 1 C35.02467203 6.94482112 35.04284663 12.8896126 35.05493164 18.83447266 C35.05996831 20.85791543 35.06679789 22.88135456 35.07543945 24.90478516 C35.08753412 27.80892843 35.09323488 30.71302369 35.09765625 33.6171875 C35.10281754 34.52556366 35.10797882 35.43393982 35.11329651 36.36984253 C35.11337204 37.21056305 35.11344757 38.05128357 35.11352539 38.91748047 C35.115746 39.65916473 35.11796661 40.400849 35.12025452 41.16500854 C35 43 35 43 34 45 C31.36 44.67 28.72 44.34 26 44 C25.93941406 42.78441406 25.87882812 41.56882813 25.81640625 40.31640625 C25.73201668 38.73175772 25.6473679 37.14712298 25.5625 35.5625 C25.52318359 34.76005859 25.48386719 33.95761719 25.44335938 33.13085938 C25.5945704 29.24760439 25.5945704 29.24760439 24 26 C21.4672235 25.92679837 18.96896082 25.90772431 16.4375 25.9375 C13.983125 25.958125 11.52875 25.97875 9 26 C8.67 31.94 8.34 37.88 8 44 C5.36 44.33 2.72 44.66 0 45 C-1.53084425 43.46915575 -1.12715779 42.08796856 -1.12939453 39.95507812 C-1.13254669 39.09748901 -1.13569885 38.2398999 -1.13894653 37.35632324 C-1.1369223 36.42404907 -1.13489807 35.4917749 -1.1328125 34.53125 C-1.13376923 33.58060669 -1.13472595 32.62996338 -1.13571167 31.6505127 C-1.13639357 29.63631118 -1.13453862 27.62210748 -1.13037109 25.60791016 C-1.12502298 22.51329645 -1.13031577 19.4188279 -1.13671875 16.32421875 C-1.13605797 14.37239551 -1.13477681 12.42057236 -1.1328125 10.46875 C-1.13483673 9.53647583 -1.13686096 8.60420166 -1.13894653 7.64367676 C-1.13579437 6.78608765 -1.13264221 5.92849854 -1.12939453 5.04492188 C-1.12859894 4.28626831 -1.12780334 3.52761475 -1.12698364 2.74597168 C-1 1 -1 1 0 0 Z " fill="#DF4B1D" transform="translate(99,192)"/>
<path d="M0 0 C33.33 0 66.66 0 101 0 C101 2.97 101 5.94 101 9 C67.67 9 34.34 9 0 9 C0 6.03 0 3.06 0 0 Z " fill="#FBEEE4" transform="translate(130,143)"/>
<path d="M0 0 C33.33 0 66.66 0 101 0 C101 2.97 101 5.94 101 9 C67.67 9 34.34 9 0 9 C0 6.03 0 3.06 0 0 Z " fill="#FDE6D6" transform="translate(130,122)"/>
<path d="M0 0 C0.33 0 0.66 0 1 0 C1.33 5.61 1.66 11.22 2 17 C2.66 16.67 3.32 16.34 4 16 C4.02351559 26.1733456 4.04110946 36.34668438 4.05181217 46.52005196 C4.05695749 51.2475902 4.06389622 55.97510942 4.07543945 60.70263672 C4.08657416 65.29334566 4.092339 69.88403671 4.09487724 74.47475815 C4.09667805 76.19718583 4.1001879 77.91961292 4.10573006 79.64203262 C4.1395332 90.618127 3.9039576 101.56409002 3.50439453 112.53320312 C2.97767209 127.13761241 2.83643873 141.72310571 2.83203125 156.3359375 C2.8288015 158.92599504 2.82543629 161.51605242 2.82194519 164.10610962 C2.81603123 169.47553002 2.8140536 174.84493248 2.81469727 180.21435547 C2.81529976 186.34593431 2.80468225 192.47742571 2.7889536 198.60898244 C2.77411841 204.61575054 2.77071385 210.62247226 2.77130699 216.62926102 C2.77014428 219.13815293 2.76582152 221.64704584 2.75797462 224.15592575 C2.72294206 236.49404431 2.86869844 248.78623087 3.7644043 261.09619141 C3.85563301 262.52876817 3.85563301 262.52876817 3.94870472 263.99028587 C4.43155559 269.73449231 5.69622058 274.44925118 8.07078266 279.70755577 C9.05082531 282.12538959 9.56348454 284.43311446 10 287 C10.99 287.33 11.98 287.66 13 288 C13.495 289.485 13.495 289.485 14 291 C14.66 291.66 15.32 292.32 16 293 C15.01 293 14.02 293 13 293 C3.14571128 282.33798269 -0.32190756 267.04245977 -0.24050903 253.01550293 C-0.24221788 251.93060971 -0.24392673 250.84571649 -0.24568737 249.72794771 C-0.24897316 246.10437122 -0.23799341 242.48098122 -0.22705078 238.85742188 C-0.22648647 236.25528976 -0.22680361 233.65315732 -0.22793579 231.05102539 C-0.22898235 225.45480938 -0.22272974 219.85864016 -0.21146011 214.26243591 C-0.19517696 206.17136153 -0.18999423 198.08030967 -0.18748413 189.98922068 C-0.18311144 176.86063952 -0.16981391 163.73208327 -0.15087891 150.60351562 C-0.13250907 137.85351689 -0.11835797 125.10352493 -0.10986328 112.35351562 C-0.10933783 111.56705058 -0.10881239 110.78058554 -0.10827102 109.97028822 C-0.10566086 106.02465852 -0.10313347 102.07902878 -0.10064721 98.13339901 C-0.07992798 65.42224787 -0.04471406 32.71112728 0 0 Z " fill="#EB5E2F" transform="translate(0,48)"/>
<path d="M0 0 C23.43 0 46.86 0 71 0 C71 2.97 71 5.94 71 9 C47.57 9 24.14 9 0 9 C0 6.03 0 3.06 0 0 Z " fill="#FDEFE6" transform="translate(130,102)"/>
<path d="M0 0 C38.61 0 77.22 0 117 0 C117.495 7.92 117.495 7.92 118 16 C118.99 18.31 119.98 20.62 121 23 C121.28875 23.763125 121.5775 24.52625 121.875 25.3125 C123.4648199 27.69722984 125.34778201 28.0717237 128 29 C128.99 29.99 128.99 29.99 130 31 C128.68 31.33 127.36 31.66 126 32 C125.01 30.515 125.01 30.515 124 29 C123.01 29 122.02 29 121 29 C121 27.68 121 26.36 121 25 C120.01 25 119.02 25 118 25 C115.17515798 17.1295282 114.6655755 10.65248145 114 2 C77.04 2 40.08 2 2 2 C1.67 31.37 1.34 60.74 1 91 C49.51 91 98.02 91 148 91 C148 71.86 148 52.72 148 33 C142.72 33 137.44 33 132 33 C131.67 32.34 131.34 31.68 131 31 C136.94 31.33 142.88 31.66 149 32 C149 51.8 149 71.6 149 92 C99.83 92 50.66 92 0 92 C0 61.64 0 31.28 0 0 Z " fill="#BE5D3C" transform="translate(106,73)"/>
<path d="M0 0 C0 14.85 0 29.7 0 45 C-2.31 45 -4.62 45 -7 45 C-8 44 -8 44 -8.11352539 40.85717773 C-8.11336633 39.46597303 -8.10767506 38.07476239 -8.09765625 36.68359375 C-8.0962413 35.95253922 -8.09482635 35.22148468 -8.09336853 34.46827698 C-8.08775408 32.12464368 -8.07519922 29.78110461 -8.0625 27.4375 C-8.05748686 25.85221492 -8.05292363 24.26692834 -8.04882812 22.68164062 C-8.03777997 18.7877239 -8.02050572 14.89387795 -8 11 C-8.99 11.33 -9.98 11.66 -11 12 C-11.13277344 12.98742187 -11.26554688 13.97484375 -11.40234375 14.9921875 C-11.57894531 16.27351563 -11.75554687 17.55484375 -11.9375 18.875 C-12.11152344 20.15117187 -12.28554687 21.42734375 -12.46484375 22.7421875 C-13 26 -13 26 -14 28 C-14.66 28 -15.32 28 -16 28 C-15.938125 29.794375 -15.938125 29.794375 -15.875 31.625 C-15.86148292 35.42329953 -16.57990247 38.44975618 -18 42 C-19.98 42 -21.96 42 -24 42 C-25.33583899 37.15758367 -26.25328119 33.06562383 -26 28 C-24.515 28.99 -24.515 28.99 -23 30 C-23 30.99 -23 31.98 -23 33 C-22.67 32.34 -22.34 31.68 -22 31 C-21.34 31 -20.68 31 -20 31 C-17.98741223 26.30396188 -16.9477938 22.51397968 -17.125 17.375 C-17.18513578 12.12314207 -16.16206145 6.79203172 -14 2 C-10 0 -10 0 0 0 Z " fill="#E04B1B" transform="translate(222,192)"/>
<path d="M0 0 C3.5875213 1.33250791 6.8364623 2.830717 10 5 C10 5.66 10 6.32 10 7 C10.66 7 11.32 7 12 7 C12 7.99 12 8.98 12 10 C13.65 10.33 15.3 10.66 17 11 C16.99666908 12.19270256 16.99666908 12.19270256 16.99327087 13.40950012 C16.97324248 20.89908277 16.95801283 28.38865246 16.94818783 35.87825489 C16.94296692 39.72882542 16.93588362 43.57937384 16.92456055 47.42993164 C16.91370356 51.14519659 16.90771718 54.86044025 16.90512276 58.57571983 C16.90327359 59.99390689 16.89966269 61.41209276 16.89426994 62.83027077 C16.88702236 64.81497692 16.88659162 66.79970444 16.88647461 68.78442383 C16.88314369 70.47986076 16.88314369 70.47986076 16.87974548 72.20954895 C16.87548582 75.08493898 16.87548582 75.08493898 18 78 C19.03640625 77.97679687 20.0728125 77.95359375 21.140625 77.9296875 C22.51040944 77.91092333 23.8802017 77.89272382 25.25 77.875 C25.93191406 77.85824219 26.61382812 77.84148437 27.31640625 77.82421875 C31.38537077 77.78471424 33.24899321 78.12449661 37 80 C37 112.34 37 144.68 37 178 C36.34 178 35.68 178 35 178 C35 178.99 35 179.98 35 181 C29.06 181 23.12 181 17 181 C16.67 190.9 16.34 200.8 16 211 C15.01 210.67 14.02 210.34 13 210 C13.495 194.655 13.495 194.655 14 179 C23.4375 178.5625 23.4375 178.5625 26.41577148 178.43188477 C27.18477783 178.39377686 27.95378418 178.35566895 28.74609375 178.31640625 C29.53685303 178.27974854 30.3276123 178.24309082 31.14233398 178.20532227 C33.01401441 178.19436743 33.01401441 178.19436743 34 177 C34.09526806 174.04753646 34.12552452 171.11851579 34.11352539 168.16577148 C34.11367142 167.23903625 34.11381744 166.31230103 34.1139679 165.35748291 C34.11326838 162.27866313 34.10547421 159.19990303 34.09765625 156.12109375 C34.09579221 153.99259982 34.09436824 151.86410547 34.09336853 149.73561096 C34.08954228 144.1213768 34.07971108 138.50716832 34.06866455 132.89294434 C34.05845273 127.16886747 34.0538714 121.44478647 34.04882812 115.72070312 C34.03808891 104.48045744 34.0210112 93.24023085 34 82 C31.76352369 80.88176185 30.35108471 80.80603939 27.8671875 80.68359375 C27.06152344 80.64169922 26.25585938 80.59980469 25.42578125 80.55664062 C24.58402344 80.51732422 23.74226563 80.47800781 22.875 80.4375 C21.60076172 80.37272461 21.60076172 80.37272461 20.30078125 80.30664062 C18.20071777 80.20045764 16.10038052 80.09971503 14 80 C14.01633987 79.20201492 14.03267975 78.40402985 14.04951477 77.5818634 C14.19286973 70.00646772 14.27223402 62.4342153 14.28240681 54.85756397 C14.28982125 50.96328536 14.32067795 47.07232748 14.40795898 43.17895508 C15.71251986 23.8704623 15.71251986 23.8704623 8.25737 7.092453 C5.64669478 4.76019899 2.96660421 2.8585611 0 1 C0 0.67 0 0.34 0 0 Z " fill="#CC5D3A" transform="translate(251,85)"/>
<path d="M0 0 C33.23226353 -0.1146294 66.46447546 -0.20264203 99.69689181 -0.25532665 C103.626867 -0.26157963 107.5568418 -0.26805129 111.48681641 -0.2746582 C112.26915112 -0.27596976 113.05148584 -0.27728131 113.85752767 -0.2786326 C126.49853842 -0.30034535 139.13943461 -0.33974388 151.78037757 -0.38576398 C164.76655019 -0.43264401 177.75266312 -0.4603197 190.73891687 -0.47044247 C198.74189829 -0.47727781 206.74455584 -0.49880771 214.74743748 -0.53958233 C220.9005845 -0.56932149 227.05348841 -0.57224519 233.20669746 -0.56553841 C235.71881151 -0.56690675 238.23093855 -0.57675571 240.74297905 -0.59602737 C254.35935918 -0.69530828 266.31370837 -0.26496739 279 5 C279 5.33 279 5.66 279 6 C277.86111328 5.98259766 277.86111328 5.98259766 276.69921875 5.96484375 C275.70535156 5.95582031 274.71148437 5.94679688 273.6875 5.9375 C272.70136719 5.92589844 271.71523438 5.91429687 270.69921875 5.90234375 C267.90036151 5.87670138 267.90036151 5.87670138 265 7 C265 6.34 265 5.68 265 5 C263.081875 4.814375 263.081875 4.814375 261.125 4.625 C257.25 4.25 257.25 4.25 255 2 C255 2.66 255 3.32 255 4 C223.32 4 191.64 4 159 4 C159 3.67 159 3.34 159 3 C162.465 2.505 162.465 2.505 166 2 C111.22 1.67 56.44 1.34 0 1 C0 0.67 0 0.34 0 0 Z " fill="#F06336" transform="translate(49,0)"/>
<path d="M0 0 C0 2.64 0 5.28 0 8 C-5.94 8.495 -5.94 8.495 -12 9 C-12.33 20.55 -12.66 32.1 -13 44 C-18 45 -18 45 -22 44 C-22 32.12 -22 20.24 -22 8 C-26.29 8 -30.58 8 -35 8 C-35 5.69 -35 3.38 -35 1 C-23.32446893 0.37160039 -11.69591188 -0.17691295 0 0 Z " fill="#D8572D" transform="translate(174,192)"/>
<path d="M0 0 C2.64 0 5.28 0 8 0 C8 11.88 8 23.76 8 36 C15.26 36 22.52 36 30 36 C30 38.31 30 40.62 30 43 C24.27322944 44.22508165 18.63749387 44.14785805 12.8125 44.125 C11.81541016 44.12886719 10.81832031 44.13273437 9.79101562 44.13671875 C8.83517578 44.13542969 7.87933594 44.13414062 6.89453125 44.1328125 C6.02675049 44.13168457 5.15896973 44.13055664 4.26489258 44.12939453 C2 44 2 44 -1 43 C-1.02464574 37.03686834 -1.042834 31.07376605 -1.05493164 25.1105957 C-1.05997278 23.08031702 -1.06680557 21.05004198 -1.07543945 19.01977539 C-1.08751467 16.10822653 -1.09323034 13.1967255 -1.09765625 10.28515625 C-1.10281754 9.3716188 -1.10797882 8.45808136 -1.11329651 7.51686096 C-1.11349168 5.34424573 -1.06211805 3.17172704 -1 1 C-0.67 0.67 -0.34 0.34 0 0 Z " fill="#D94D22" transform="translate(232,193)"/>
<path d="M0 0 C43.56 0 87.12 0 132 0 C132 0.33 132 0.66 132 1 C89.1 1.33 46.2 1.66 2 2 C0.22849121 5.54301757 -0.25022775 6.52930394 -0.2784729 10.16351318 C-0.28963638 10.98518478 -0.30079987 11.80685638 -0.31230164 12.65342712 C-0.31446182 13.54606766 -0.31662201 14.43870819 -0.31884766 15.35839844 C-0.32889328 16.30507889 -0.3389389 17.25175934 -0.34928894 18.22712708 C-0.38016627 21.35453691 -0.39716885 24.48186095 -0.4140625 27.609375 C-0.43277047 29.77842957 -0.4523436 31.94747684 -0.4727478 34.11651611 C-0.52411409 39.82435808 -0.56371584 45.53222365 -0.60089111 51.24017334 C-0.64090251 57.0651231 -0.69200793 62.88997428 -0.7421875 68.71484375 C-0.83900007 80.14315996 -0.92338788 91.57153177 -1 103 C-2.28777344 103.06058594 -3.57554688 103.12117188 -4.90234375 103.18359375 C-6.58074159 103.26798247 -8.25912636 103.3526313 -9.9375 103.4375 C-10.78763672 103.47681641 -11.63777344 103.51613281 -12.51367188 103.55664062 C-13.32255859 103.59853516 -14.13144531 103.64042969 -14.96484375 103.68359375 C-15.7137085 103.72025146 -16.46257324 103.75690918 -17.23413086 103.79467773 C-19.02461326 103.81771063 -19.02461326 103.81771063 -20 105 C-20.10059769 107.94709415 -20.1361505 110.87079141 -20.12939453 113.81835938 C-20.13114685 114.74348831 -20.13289917 115.66861725 -20.13470459 116.6217804 C-20.13912467 119.69578905 -20.13618457 122.7697407 -20.1328125 125.84375 C-20.13348549 127.96984875 -20.13445548 130.09594742 -20.13571167 132.2220459 C-20.13718886 136.6843336 -20.13503342 141.14660133 -20.13037109 145.60888672 C-20.1246738 151.34270569 -20.12795269 157.07647785 -20.13394356 162.8102951 C-20.13754861 167.20245723 -20.13641084 171.59460817 -20.13381577 175.98677063 C-20.13314634 178.10158799 -20.13397545 180.21640634 -20.13629532 182.33122253 C-20.13882093 185.28138946 -20.13498254 188.23147946 -20.12939453 191.18164062 C-20.13141876 192.06479446 -20.13344299 192.9479483 -20.13552856 193.85786438 C-20.5066243 197.74084913 -20.5066243 197.74084913 -19 201 C-17.65984779 201.15582303 -16.31241097 201.25044142 -14.96484375 201.31640625 C-14.23644287 201.35451416 -13.50804199 201.39262207 -12.75756836 201.43188477 C-11.8269458 201.47498779 -10.89632324 201.51809082 -9.9375 201.5625 C-6.988125 201.706875 -4.03875 201.85125 -1 202 C-1 211.24 -1 220.48 -1 230 C-1.33 230 -1.66 230 -2 230 C-2 221.09 -2 212.18 -2 203 C-7.78888633 203.07895506 -7.78888633 203.07895506 -13.57739258 203.18017578 C-14.66250122 203.18766846 -14.66250122 203.18766846 -15.76953125 203.1953125 C-16.87711792 203.21102295 -16.87711792 203.21102295 -18.00708008 203.22705078 C-20 203 -20 203 -23 201 C-23.29136575 197.93576001 -23.38834147 195.07406168 -23.35644531 192.00805664 C-23.35848969 191.07624069 -23.36053406 190.14442474 -23.36264038 189.18437195 C-23.36565751 186.09276949 -23.34714196 183.00169565 -23.328125 179.91015625 C-23.32506864 177.76785921 -23.32319158 175.6255602 -23.32244873 173.48326111 C-23.31783965 168.98819401 -23.30339157 164.49330545 -23.28125 159.99829102 C-23.25298422 154.2299369 -23.24204081 148.4617237 -23.2375679 142.69330692 C-23.23341457 138.26759932 -23.22359751 133.84192035 -23.21169281 129.41622734 C-23.20598611 127.28910998 -23.20122873 125.16198986 -23.19742584 123.03486824 C-23.19056596 120.0636421 -23.1769342 117.09252825 -23.16113281 114.12133789 C-23.16001495 113.23759491 -23.15889709 112.35385193 -23.15774536 111.44332886 C-23.13381044 108.05231562 -23.07965854 105.23897563 -22 102 C-15.4 102 -8.8 102 -2 102 C-2 69 -2 36 -2 2 C-1.34 2 -0.68 2 0 2 C0 1.34 0 0.68 0 0 Z " fill="#CA7354" transform="translate(96,62)"/>
<path d="M0 0 C3.64581687 -0.02887512 7.29160463 -0.04675585 10.9375 -0.0625 C12.49887695 -0.07506836 12.49887695 -0.07506836 14.09179688 -0.08789062 C15.08115234 -0.09111328 16.07050781 -0.09433594 17.08984375 -0.09765625 C18.46450806 -0.10551147 18.46450806 -0.10551147 19.86694336 -0.11352539 C22 0 22 0 23 1 C25.44608998 1.15980437 27.86731058 1.25929447 30.31640625 1.31640625 C31.04746078 1.33718735 31.77851532 1.35796844 32.53172302 1.37937927 C34.87521656 1.44495024 37.21882539 1.50379432 39.5625 1.5625 C41.14779855 1.60567808 42.73308529 1.64929213 44.31835938 1.69335938 C48.21212037 1.8006392 52.10599772 1.9018849 56 2 C56 1.34 56 0.68 56 0 C59.64581687 -0.02887512 63.29160463 -0.04675585 66.9375 -0.0625 C67.97841797 -0.07087891 69.01933594 -0.07925781 70.09179688 -0.08789062 C71.08115234 -0.09111328 72.07050781 -0.09433594 73.08984375 -0.09765625 C74.46450806 -0.10551147 74.46450806 -0.10551147 75.86694336 -0.11352539 C78 0 78 0 79 1 C81.09757006 1.13424902 83.19934839 1.20363334 85.30078125 1.24609375 C87.23147461 1.29540039 87.23147461 1.29540039 89.20117188 1.34570312 C91.25507881 1.39303495 93.30896167 1.43743217 95.36303711 1.47680664 C97.34246851 1.51664815 99.32164165 1.5687251 101.30078125 1.62109375 C103.08222534 1.65867798 103.08222534 1.65867798 104.8996582 1.69702148 C107.82353709 1.9827553 109.52904685 2.4743953 112 4 C112 4.99 112 5.98 112 7 C112.61875 7.144375 113.2375 7.28875 113.875 7.4375 C116 8 116 8 118 9 C118 10.32 118 11.64 118 13 C118.804375 13.2475 119.60875 13.495 120.4375 13.75 C123 15 123 15 123.8125 17.125 C123.874375 17.74375 123.93625 18.3625 124 19 C123.01 19 122.02 19 121 19 C119.75136306 17.3730913 118.50590256 15.74362113 117.27867317 14.10050392 C112.61101993 8.27421205 108.23798871 4.77954723 100.71392822 3.70977783 C93.58835301 3.15790576 86.46812055 3.2301149 79.32970285 3.37855577 C75.72360042 3.43854522 72.11790053 3.41815345 68.51144409 3.40682983 C61.70388032 3.39739236 54.89892673 3.45868262 48.09199607 3.54635084 C40.33367768 3.64275682 32.57581433 3.65885629 24.81697869 3.6687119 C8.87684831 3.69073297 -7.06090996 3.81197151 -23 4 C-21 2 -21 2 -18.84521484 1.77294922 C-17.97590332 1.78342285 -17.1065918 1.79389648 -16.2109375 1.8046875 C-15.26992187 1.81113281 -14.32890625 1.81757812 -13.359375 1.82421875 C-12.37453125 1.84097656 -11.3896875 1.85773437 -10.375 1.875 C-9.38242188 1.88402344 -8.38984375 1.89304688 -7.3671875 1.90234375 C-4.91121866 1.92595884 -2.45572832 1.95889201 0 2 C0 1.34 0 0.68 0 0 Z " fill="#E14C1D" transform="translate(121,58)"/>
<path d="M0 0 C2.64 0 5.28 0 8 0 C8.33 5.61 8.66 11.22 9 17 C14.28 17.33 19.56 17.66 25 18 C25.33 12.06 25.66 6.12 26 0 C28.97 0.33 31.94 0.66 35 1 C35.02467203 6.94482112 35.04284663 12.8896126 35.05493164 18.83447266 C35.05996831 20.85791543 35.06679789 22.88135456 35.07543945 24.90478516 C35.08753412 27.80892843 35.09323488 30.71302369 35.09765625 33.6171875 C35.10281754 34.52556366 35.10797882 35.43393982 35.11329651 36.36984253 C35.11337204 37.21056305 35.11344757 38.05128357 35.11352539 38.91748047 C35.115746 39.65916473 35.11796661 40.400849 35.12025452 41.16500854 C35 43 35 43 34 45 C31.36 44.67 28.72 44.34 26 44 C25.93941406 42.78441406 25.87882812 41.56882813 25.81640625 40.31640625 C25.73201668 38.73175772 25.6473679 37.14712298 25.5625 35.5625 C25.52318359 34.76005859 25.48386719 33.95761719 25.44335938 33.13085938 C25.5945704 29.24760439 25.5945704 29.24760439 24 26 C21.4672235 25.92679837 18.96896082 25.90772431 16.4375 25.9375 C13.983125 25.958125 11.52875 25.97875 9 26 C8.67 31.94 8.34 37.88 8 44 C5.36 44.33 2.72 44.66 0 45 C-1.53084425 43.46915575 -1.12715779 42.08796856 -1.12939453 39.95507812 C-1.13254669 39.09748901 -1.13569885 38.2398999 -1.13894653 37.35632324 C-1.1369223 36.42404907 -1.13489807 35.4917749 -1.1328125 34.53125 C-1.13376923 33.58060669 -1.13472595 32.62996338 -1.13571167 31.6505127 C-1.13639357 29.63631118 -1.13453862 27.62210748 -1.13037109 25.60791016 C-1.12502298 22.51329645 -1.13031577 19.4188279 -1.13671875 16.32421875 C-1.13605797 14.37239551 -1.13477681 12.42057236 -1.1328125 10.46875 C-1.13483673 9.53647583 -1.13686096 8.60420166 -1.13894653 7.64367676 C-1.13579437 6.78608765 -1.13264221 5.92849854 -1.12939453 5.04492188 C-1.12859894 4.28626831 -1.12780334 3.52761475 -1.12698364 2.74597168 C-1 1 -1 1 0 0 Z M27 2 C26.67 7.28 26.34 12.56 26 18 C20.06 18 14.12 18 8 18 C6.58365167 15.16730334 6.6536995 12.52533562 6.4375 9.375 C6.35371094 8.18648437 6.26992187 6.99796875 6.18359375 5.7734375 C6.09271484 4.40058594 6.09271484 4.40058594 6 3 C2.88214887 3.64644661 2.88214887 3.64644661 2 6 C1.91324462 8.69893181 1.88442103 11.37169231 1.90234375 14.0703125 C1.9037587 14.86654022 1.90517365 15.66276794 1.90663147 16.48312378 C1.91223655 19.0304538 1.92478986 21.57769647 1.9375 24.125 C1.94251435 25.85025915 1.94707737 27.57551967 1.95117188 29.30078125 C1.96220763 33.53388791 1.97947564 37.76692914 2 42 C3.32 42 4.64 42 6 42 C6.06058594 40.85660156 6.12117188 39.71320313 6.18359375 38.53515625 C6.26798428 37.04425695 6.35263302 35.55337225 6.4375 34.0625 C6.47681641 33.30775391 6.51613281 32.55300781 6.55664062 31.77539062 C6.88671875 26.11328125 6.88671875 26.11328125 8 25 C10.65653443 24.89997545 13.28129272 24.86122537 15.9375 24.875 C17.0502832 24.86919922 17.0502832 24.86919922 18.18554688 24.86328125 C23.74672998 24.87336499 23.74672998 24.87336499 26 26 C26.495 34.415 26.495 34.415 27 43 C28.98 43 30.96 43 33 43 C33 29.47 33 15.94 33 2 C31.02 2 29.04 2 27 2 Z " fill="#CE6B49" transform="translate(99,192)"/>
<path d="M0 0 C31.68 0 63.36 0 96 0 C95.67 1.32 95.34 2.64 95 4 C63.98 4 32.96 4 1 4 C0.67 2.68 0.34 1.36 0 0 Z " fill="#FCFDFA" transform="translate(132,125)"/>
<path d="M0 0 C1.68647739 0.00113058 3.37295673 0.00049051 5.05943298 -0.00177002 C9.60214197 -0.00290988 14.14442181 0.02048035 18.68703175 0.04852581 C23.44756156 0.07366193 28.20810302 0.07589104 32.96868896 0.08062744 C41.9675807 0.09302153 50.96627627 0.12579449 59.96508193 0.1660254 C70.21664888 0.2108546 80.46822558 0.2327581 90.71986628 0.25280714 C111.79349657 0.29453055 132.86695073 0.36481271 153.94042969 0.45410156 C154.27042969 1.11410156 154.60042969 1.77410156 154.94042969 2.45410156 C154.11382119 2.45225798 153.2872127 2.45041439 152.43555546 2.44851494 C132.30378292 2.40430779 112.17201876 2.3712313 92.04020786 2.35047722 C82.30453814 2.34017342 72.56890085 2.32613023 62.83325195 2.30322266 C54.34568937 2.28326133 45.85815028 2.27037861 37.37056488 2.26592457 C32.87826022 2.26332184 28.38602278 2.25722297 23.8937397 2.24264145 C19.66094578 2.2290142 15.42824644 2.22488929 11.19543266 2.2278862 C9.64631511 2.22733833 8.09719422 2.22339163 6.5480957 2.21569061 C-1.26449496 2.17877406 -8.47009905 2.44882194 -16.05957031 4.45410156 C-18.42513197 4.60449963 -20.68726063 4.55505091 -23.05957031 4.45410156 C-23.05957031 5.11410156 -23.05957031 5.77410156 -23.05957031 6.45410156 C-25.69957031 6.45410156 -28.33957031 6.45410156 -31.05957031 6.45410156 C-23.35945796 -1.24601079 -10.09794925 -0.09567869 0 0 Z " fill="#DC4C1F" transform="translate(61.0595703125,0.5458984375)"/>
<path d="M0 0 C0.33 0 0.66 0 1 0 C1 27.39 1 54.78 1 83 C48.52 83 96.04 83 145 83 C145 64.52 145 46.04 145 27 C139.06 27 133.12 27 127 27 C126.505 25.515 126.505 25.515 126 24 C127.65 24.33 129.3 24.66 131 25 C136.28 25.33 141.56 25.66 147 26 C147 45.14 147 64.28 147 84 C98.49 84 49.98 84 0 84 C0 56.28 0 28.56 0 0 Z " fill="#D25025" transform="translate(107,80)"/>
<path d="M0 0 C0.99 0.495 0.99 0.495 2 1 C1.67 32.68 1.34 64.36 1 97 C3.65918166 97.88639389 5.48064641 98.17989025 8.23046875 98.31640625 C9.03291016 98.35830078 9.83535156 98.40019531 10.66210938 98.44335938 C11.49548828 98.48267578 12.32886719 98.52199219 13.1875 98.5625 C14.4549707 98.62727539 14.4549707 98.62727539 15.74804688 98.69335938 C17.83184433 98.79931518 19.91590103 98.9001502 22 99 C22.01981934 99.79696289 22.03963867 100.59392578 22.06005859 101.41503906 C22.15533248 105.02702472 22.26500307 108.63843399 22.375 112.25 C22.4059375 113.50425781 22.436875 114.75851562 22.46875 116.05078125 C22.50742188 117.25605469 22.54609375 118.46132813 22.5859375 119.703125 C22.63306885 121.36843262 22.63306885 121.36843262 22.68115234 123.06738281 C22.99089737 125.9162781 23.43462483 127.6230776 25 130 C27.85574366 131.42787183 30.27297711 131.12269238 33.46658325 131.12025452 C34.13799469 131.12110894 34.80940613 131.12196337 35.50116336 131.12284368 C37.76138175 131.12449688 40.02152668 131.11897972 42.28173828 131.11352539 C43.89777627 131.11324346 45.51381438 131.11340137 47.12985229 131.1139679 C51.52629901 131.11425564 55.92271863 131.10836269 60.31915903 131.10139394 C64.9102709 131.0951565 69.50138333 131.09455629 74.09249878 131.09336853 C82.79059976 131.09025637 91.48868821 131.08204452 100.18678367 131.07201904 C110.0874864 131.06085434 119.98818972 131.05534655 129.88889718 131.05032361 C150.25927178 131.03986182 170.6296351 131.0222646 191 131 C190.67 131.66 190.34 132.32 190 133 C168.66887012 133.02334021 147.33774234 133.04098471 126.00660229 133.05181217 C116.1026231 133.05697274 106.19865184 133.06401089 96.29467773 133.07543945 C87.66434181 133.08539358 79.03401163 133.09185517 70.40367013 133.09408849 C65.83221337 133.09539436 61.26077303 133.09847239 56.68932152 133.10573006 C52.38926147 133.11250175 48.08922465 133.1146146 43.78915977 133.11310768 C42.2084999 133.11338349 40.62783927 133.11538182 39.04718399 133.11920547 C36.89370643 133.12416063 34.74031726 133.12299151 32.58683777 133.12025452 C30.77689724 133.12163721 30.77689724 133.12163721 28.93039227 133.12304783 C26 133 26 133 23 132 C22.67 131.01 22.34 130.02 22 129 C21.34 128.67 20.68 128.34 20 128 C20 118.76 20 109.52 20 100 C14.54020342 100.07893723 14.54020342 100.07893723 9.08081055 100.18017578 C8.05661011 100.18766846 8.05661011 100.18766846 7.01171875 100.1953125 C6.31522217 100.20578613 5.61872559 100.21625977 4.90112305 100.22705078 C3 100 3 100 0 98 C-0.28599346 94.85996287 -0.37784161 91.91811307 -0.34057617 88.77685547 C-0.34101425 87.8207135 -0.34145233 86.86457153 -0.34190369 85.87945557 C-0.33980806 82.70849421 -0.31644045 79.53805687 -0.29296875 76.3671875 C-0.28737555 74.17286467 -0.28310415 71.97853811 -0.28010559 69.78421021 C-0.26863511 64.00056671 -0.23914893 58.21714818 -0.20599365 52.43359375 C-0.17534023 46.53518721 -0.16161037 40.63674443 -0.14648438 34.73828125 C-0.11428139 23.15875516 -0.06305843 11.57939627 0 0 Z " fill="#D05630" transform="translate(72,166)"/>
<path d="M0 0 C1.43655854 -0.08131463 2.8744483 -0.13933559 4.3125 -0.1875 C5.51326172 -0.23970703 5.51326172 -0.23970703 6.73828125 -0.29296875 C9.47851584 0.06198392 10.29171079 0.89366282 12 3 C11.67 3.99 11.34 4.98 11 6 C10.65179959 7.66362417 10.31595508 9.32995171 10 11 C9.67 10.34 9.34 9.68 9 9 C7.68 8.67 6.36 8.34 5 8 C5 18.89 5 29.78 5 41 C3.02 41 1.04 41 -1 41 C-1.02467609 35.48242521 -1.04284856 29.96488239 -1.05493164 24.44726562 C-1.05996763 22.56933025 -1.06679671 20.6913988 -1.07543945 18.81347656 C-1.08753713 16.11782868 -1.09323557 13.42223253 -1.09765625 10.7265625 C-1.10281754 9.88380768 -1.10797882 9.04105286 -1.11329651 8.17276001 C-1.11387171 2.22774341 -1.11387171 2.22774341 0 0 Z " fill="#DC4C1D" transform="translate(182,194)"/>
<path d="M0 0 C0 14.85 0 29.7 0 45 C-2.31 45 -4.62 45 -7 45 C-8 44 -8 44 -8.11352539 41.13256836 C-8.10828857 39.88096924 -8.10305176 38.62937012 -8.09765625 37.33984375 C-8.0962413 36.67537735 -8.09482635 36.01091095 -8.09336853 35.3263092 C-8.08775518 33.19666101 -8.07520054 31.06711661 -8.0625 28.9375 C-8.05748671 27.49674631 -8.05292351 26.05599097 -8.04882812 24.61523438 C-8.03778145 21.07678898 -8.02050792 17.53840461 -8 14 C-7.34 14 -6.68 14 -6 14 C-6 23.24 -6 32.48 -6 42 C-4.68 42 -3.36 42 -2 42 C-2 29.13 -2 16.26 -2 3 C-4.97 3 -7.94 3 -11 3 C-11.66 7.29 -12.32 11.58 -13 16 C-13.99 16 -14.98 16 -16 16 C-17.18075019 12.45774942 -16.74777355 11.00293367 -15.8125 7.4375 C-15.57144531 6.46683594 -15.33039063 5.49617187 -15.08203125 4.49609375 C-12.31393501 -1.88951453 -6.22394195 0 0 0 Z " fill="#CA5C3A" transform="translate(222,192)"/>
<path d="M0 0 C33.66 0 67.32 0 102 0 C102.495 1.98 102.495 1.98 103 4 C102.01 3.67 101.02 3.34 100 3 C98.6168421 2.90066922 97.22951626 2.85396062 95.84284973 2.84178162 C94.99731033 2.8319928 94.15177094 2.82220398 93.28060913 2.81211853 C92.35632111 2.80636307 91.43203308 2.8006076 90.47973633 2.79467773 C89.50394119 2.78477814 88.52814606 2.77487854 87.52278137 2.76467896 C84.29255614 2.73305329 81.06231619 2.70830223 77.83203125 2.68359375 C75.59429031 2.66302515 73.35655326 2.6420287 71.11882019 2.62062073 C65.22518057 2.56539037 59.33150583 2.5159853 53.43780518 2.46777344 C47.42530181 2.41756549 41.41284953 2.36187573 35.40039062 2.30664062 C23.60030404 2.19904724 11.80017313 2.09760485 0 2 C0 1.34 0 0.68 0 0 Z " fill="#D35025" transform="translate(130,140)"/>
<path d="M0 0 C0.33 0.99 0.66 1.98 1 3 C1.66 3 2.32 3 3 3 C1.43484886 10.22552784 -0.31877364 17.39376907 -2.125 24.5625 C-2.40214844 25.66658203 -2.67929688 26.77066406 -2.96484375 27.90820312 C-3.642148 30.60574247 -4.32055641 33.30299886 -5 36 C-10.33915686 37.21344474 -10.33915686 37.21344474 -13.12402344 36.31396484 C-15 35 -15 35 -15.82128906 32.90869141 C-16.04123535 31.6429126 -16.04123535 31.6429126 -16.265625 30.3515625 C-16.43320313 29.42859375 -16.60078125 28.505625 -16.7734375 27.5546875 C-16.93070313 26.58789062 -17.08796875 25.62109375 -17.25 24.625 C-17.42273438 23.6659375 -17.59546875 22.706875 -17.7734375 21.71875 C-18.47504811 17.72068318 -19 14.07389293 -19 10 C-18.34 10 -17.68 10 -17 10 C-16.67 9.01 -16.34 8.02 -16 7 C-15.49242138 8.41396902 -14.99425075 9.83131729 -14.5 11.25 C-14.2215625 12.03890625 -13.943125 12.8278125 -13.65625 13.640625 C-13 16 -13 16 -13 20 C-11.68 20 -10.36 20 -9 20 C-8.34 16.37 -7.68 12.74 -7 9 C-4.61971831 13.76056338 -4.61971831 13.76056338 -6 18 C-7.23831341 20.40643901 -8.59220009 22.68394208 -10 25 C-10.66 25 -11.32 25 -12 25 C-12.66 23.68 -13.32 22.36 -14 21 C-13.67 25.29 -13.34 29.58 -13 34 C-11.02 34 -9.04 34 -7 34 C-6.34 29.38 -5.68 24.76 -5 20 C-4.34 20 -3.68 20 -3 20 C-2.01 13.4 -1.02 6.8 0 0 Z " fill="#D2542B" transform="translate(211,200)"/>
<path d="M0 0 C42.9 0 85.8 0 130 0 C130.33 1.32 130.66 2.64 131 4 C131.61875 4.144375 132.2375 4.28875 132.875 4.4375 C135 5 135 5 137 6 C137 7.32 137 8.64 137 10 C137.804375 10.2475 138.60875 10.495 139.4375 10.75 C142 12 142 12 142.8125 14.125 C142.874375 14.74375 142.93625 15.3625 143 16 C142.01 16 141.02 16 140 16 C138.73541096 14.37398192 137.47437346 12.74504242 136.23396492 11.10050392 C131.61289854 5.3680412 127.29699956 1.7947037 119.86920166 0.70977783 C112.96359503 0.15921764 106.05744938 0.22995252 99.13741922 0.37855577 C95.64342612 0.43857215 92.1498459 0.41815144 88.65548706 0.40682983 C82.06038374 0.39739474 75.46797602 0.45866527 68.87352645 0.54635084 C61.35704235 0.64277893 53.8410274 0.65885751 46.32400918 0.6687119 C30.88149826 0.69072917 15.44143677 0.81194213 0 1 C0 0.67 0 0.34 0 0 Z " fill="#CA532C" transform="translate(102,61)"/>
<path d="M0 0 C3.5875213 1.33250791 6.8364623 2.830717 10 5 C10 5.66 10 6.32 10 7 C10.66 7 11.32 7 12 7 C12 7.99 12 8.98 12 10 C13.65 10.33 15.3 10.66 17 11 C17 32.12 17 53.24 17 75 C16.67 75 16.34 75 16 75 C15.67 76.65 15.34 78.3 15 80 C14.67 80 14.34 80 14 80 C14.01633987 79.20201492 14.03267975 78.40402985 14.04951477 77.5818634 C14.19286973 70.00646772 14.27223402 62.4342153 14.28240681 54.85756397 C14.28982125 50.96328536 14.32067795 47.07232748 14.40795898 43.17895508 C15.71251986 23.8704623 15.71251986 23.8704623 8.25737 7.092453 C5.64669478 4.76019899 2.96660421 2.8585611 0 1 C0 0.67 0 0.34 0 0 Z " fill="#D56D4A" transform="translate(251,85)"/>
<path d="M0 0 C38.61 0 77.22 0 117 0 C117.495 7.92 117.495 7.92 118 16 C118.99 18.31 119.98 20.62 121 23 C121.28875 23.763125 121.5775 24.52625 121.875 25.3125 C123.4648199 27.69722984 125.34778201 28.0717237 128 29 C128.99 29.99 128.99 29.99 130 31 C128.68 31.33 127.36 31.66 126 32 C125.01 30.515 125.01 30.515 124 29 C123.01 29 122.02 29 121 29 C121 27.68 121 26.36 121 25 C120.01 25 119.02 25 118 25 C115.18247191 16.54741572 116 10.78192497 116 1 C77.72 1 39.44 1 0 1 C0 0.67 0 0.34 0 0 Z " fill="#C97E63" transform="translate(106,73)"/>
<path d="M0 0 C2.64 0 5.28 0 8 0 C8 0.33 8 0.66 8 1 C6.02 1 4.04 1 2 1 C2.33 13.87 2.66 26.74 3 40 C16.365 40.495 16.365 40.495 30 41 C30 39.35 30 37.7 30 36 C23.4 36 16.8 36 10 36 C10 35.67 10 35.34 10 35 C16.93 35 23.86 35 31 35 C31 37.31 31 39.62 31 42 C25.27322944 43.22508165 19.63749387 43.14785805 13.8125 43.125 C12.81541016 43.12886719 11.81832031 43.13273437 10.79101562 43.13671875 C9.83517578 43.13542969 8.87933594 43.13414062 7.89453125 43.1328125 C7.02675049 43.13168457 6.15896973 43.13055664 5.26489258 43.12939453 C3 43 3 43 0 42 C0 28.14 0 14.28 0 0 Z " fill="#CC7558" transform="translate(231,194)"/>
<path d="M0 0 C0.33 0 0.66 0 1 0 C1.00808685 0.54805298 1.01617371 1.09610596 1.02450562 1.6607666 C1.29893342 32.04181796 1.29893342 32.04181796 2.8125 62.375 C2.87034668 63.24833984 2.92819336 64.12167969 2.98779297 65.02148438 C3.4673538 70.35753323 4.88957993 74.77014455 7.0690918 79.66259766 C8.03866355 82.09707968 8.56075725 84.4216251 9 87 C9.99 87.33 10.98 87.66 12 88 C12.33 88.99 12.66 89.98 13 91 C13.66 91.66 14.32 92.32 15 93 C14.01 93 13.02 93 12 93 C4.3379006 84.70985967 -0.13414977 72.44087562 -0.11352539 61.30371094 C-0.11367142 60.63988403 -0.11381744 59.97605713 -0.1139679 59.29211426 C-0.11327332 57.1061675 -0.10550231 54.92030681 -0.09765625 52.734375 C-0.09579045 51.21551561 -0.09436731 49.69665562 -0.09336853 48.17779541 C-0.0895561 44.18622161 -0.0797367 40.19468438 -0.06866455 36.203125 C-0.05842303 32.1276092 -0.05386504 28.05208747 -0.04882812 23.9765625 C-0.03811327 15.98435825 -0.02105216 7.99218368 0 0 Z " fill="#DB4E20" transform="translate(1,248)"/>
<path d="M0 0 C0 1.65 0 3.3 0 5 C-3.63 5 -7.26 5 -11 5 C-11 4.67 -11 4.34 -11 4 C-8.03 4 -5.06 4 -2 4 C-2 3.34 -2 2.68 -2 2 C-11.57 1.67 -21.14 1.34 -31 1 C-31 1.99 -31 2.98 -31 4 C-27.7 4 -24.4 4 -21 4 C-21 4.66 -21 5.32 -21 6 C-25.29 6 -29.58 6 -34 6 C-34 3.69 -34 1.38 -34 -1 C-22.41049818 -1.83169592 -11.42520871 -2.56484277 0 0 Z " fill="#CF5834" transform="translate(173,194)"/>
<path d="M0 0 C4.90716833 -0.10002068 9.81372362 -0.17200237 14.72167969 -0.21972656 C16.38584754 -0.23965287 18.04994714 -0.26680428 19.71386719 -0.30175781 C29.87898241 -0.50970842 38.50433401 -0.18413102 48 4 C48 4.33 48 4.66 48 5 C46.86111328 4.98259766 46.86111328 4.98259766 45.69921875 4.96484375 C44.70535156 4.95582031 43.71148437 4.94679688 42.6875 4.9375 C41.70136719 4.92589844 40.71523438 4.91429687 39.69921875 4.90234375 C36.90036151 4.87670138 36.90036151 4.87670138 34 6 C34 5.34 34 4.68 34 4 C32.081875 3.814375 32.081875 3.814375 30.125 3.625 C26.25 3.25 26.25 3.25 24 1 C24 1.66 24 2.32 24 3 C16.08 2.67 8.16 2.34 0 2 C0 1.34 0 0.68 0 0 Z " fill="#D95025" transform="translate(280,1)"/>
<path d="M0 0 C0.99 0 1.98 0 3 0 C-2.13967068 10.98240951 -12.71467055 18.05503085 -23.69140625 22.4921875 C-32.2266289 25.25779037 -32.2266289 25.25779037 -36 24 C-35.34 24 -34.68 24 -34 24 C-34 23.01 -34 22.02 -34 21 C-27.07 20.01 -27.07 20.01 -20 19 C-19.67 18.01 -19.34 17.02 -19 16 C-17.02 15.67 -15.04 15.34 -13 15 C-13 13.68 -13 12.36 -13 11 C-11.35 11 -9.7 11 -8 11 C-7.7525 10.360625 -7.505 9.72125 -7.25 9.0625 C-6 7 -6 7 -3.875 6.25 C-3.25625 6.1675 -2.6375 6.085 -2 6 C-2 5.01 -2 4.02 -2 3 C-1.34 3 -0.68 3 0 3 C0 2.01 0 1.02 0 0 Z " fill="#D15E39" transform="translate(348,335)"/>
<path d="M0 0 C0.33 0 0.66 0 1 0 C1 20.13 1 40.26 1 61 C1.66 61 2.32 61 3 61 C3 61.66 3 62.32 3 63 C7.95 63 12.9 63 18 63 C18.33 63.99 18.66 64.98 19 66 C12.73 65.67 6.46 65.34 0 65 C0 43.55 0 22.1 0 0 Z " fill="#C25731" transform="translate(266,100)"/>
<path d="M0 0 C0.33 1.32 0.66 2.64 1 4 C-4.94 4 -10.88 4 -17 4 C-17.33 13.9 -17.66 23.8 -18 34 C-18.99 33.67 -19.98 33.34 -21 33 C-20.67 22.77 -20.34 12.54 -20 2 C-10.5625 1.5625 -10.5625 1.5625 -7.58422852 1.43188477 C-6.81522217 1.39377686 -6.04621582 1.35566895 -5.25390625 1.31640625 C-4.46314697 1.27974854 -3.6723877 1.24309082 -2.85766602 1.20532227 C-0.98598559 1.19436743 -0.98598559 1.19436743 0 0 Z " fill="#C86A4B" transform="translate(285,262)"/>
<path d="M0 0 C0.33 0.99 0.66 1.98 1 3 C1.66 3 2.32 3 3 3 C1.43484886 10.22552784 -0.31877364 17.39376907 -2.125 24.5625 C-2.40214844 25.66658203 -2.67929688 26.77066406 -2.96484375 27.90820312 C-3.642148 30.60574247 -4.32055641 33.30299886 -5 36 C-7.8125 36.625 -7.8125 36.625 -11 37 C-11.99 36.34 -12.98 35.68 -14 35 C-11.36 35 -8.72 35 -6 35 C-5.67 30.05 -5.34 25.1 -5 20 C-4.34 20 -3.68 20 -3 20 C-2.01 13.4 -1.02 6.8 0 0 Z " fill="#CA6846" transform="translate(211,200)"/>
<path d="M0 0 C2.475 0.495 2.475 0.495 5 1 C10.28 1.33 15.56 1.66 21 2 C21 21.14 21 40.28 21 60 C20.67 60 20.34 60 20 60 C20 41.19 20 22.38 20 3 C13.73 3 7.46 3 1 3 C0.67 2.01 0.34 1.02 0 0 Z " fill="#C15730" transform="translate(233,104)"/>
<path d="M0 0 C6.93 0.495 6.93 0.495 14 1 C13.67 2.32 13.34 3.64 13 5 C12.34 4.34 11.68 3.68 11 3 C8.03 2.67 5.06 2.34 2 2 C1.67 15.53 1.34 29.06 1 43 C2.98 43 4.96 43 7 43 C7.33 42.01 7.66 41.02 8 40 C7.505 42.475 7.505 42.475 7 45 C4.69 44.67 2.38 44.34 0 44 C0 29.48 0 14.96 0 0 Z " fill="#C66A4B" transform="translate(180,192)"/>
<path d="M0 0 C8.63788377 1.99335779 15.06771949 8.76349997 21 15 C20.67 15.66 20.34 16.32 20 17 C19.01 16.67 18.02 16.34 17 16 C17 15.34 17 14.68 17 14 C16.01 13.67 15.02 13.34 14 13 C14 12.34 14 11.68 14 11 C13.21625 10.731875 12.4325 10.46375 11.625 10.1875 C9 9 9 9 7 6 C6.01 5.67 5.02 5.34 4 5 C4 4.34 4 3.68 4 3 C2.68 2.67 1.36 2.34 0 2 C0 1.34 0 0.68 0 0 Z " fill="#CD5E3B" transform="translate(328,6)"/>
<path d="M0 0 C0.66 0 1.32 0 2 0 C1.01326911 8.64240157 -1.79446468 15.42210145 -6 23 C-8 20 -8 20 -8 18 C-7.34 18 -6.68 18 -6 18 C-6 17.01 -6 16.02 -6 15 C-5.34 15 -4.68 15 -4 15 C-3.87882812 14.16855469 -3.75765625 13.33710938 -3.6328125 12.48046875 C-3.38144531 10.85044922 -3.38144531 10.85044922 -3.125 9.1875 C-2.96257812 8.10855469 -2.80015625 7.02960938 -2.6328125 5.91796875 C-2 3 -2 3 0 0 Z " fill="#D25C33" transform="translate(358,312)"/>
<path d="M0 0 C0.66 0.33 1.32 0.66 2 1 C1.01 2.485 1.01 2.485 0 4 C-0.66 4 -1.32 4 -2 4 C-2.66 5.32 -3.32 6.64 -4 8 C-4.66 8 -5.32 8 -6 8 C-6.99 9.485 -6.99 9.485 -8 11 C-8.99 12.485 -8.99 12.485 -10 14 C-10.66 14 -11.32 14 -12 14 C-12.33 14.66 -12.66 15.32 -13 16 C-13 15.34 -13 14.68 -13 14 C-13.66 13.67 -14.32 13.34 -15 13 C-4.64705882 2.32352941 -4.64705882 2.32352941 0 0 Z " fill="#D15E3C" transform="translate(28,7)"/>
<path d="M0 0 C2.60859646 3.91289469 3.74825252 8.10807619 5.14453125 12.55078125 C6.16427187 15.72261251 7.13779801 18.20669701 9 21 C9 21.99 9 22.98 9 24 C9.99 24.33 10.98 24.66 12 25 C12.33 25.99 12.66 26.98 13 28 C13.66 28.66 14.32 29.32 15 30 C14.01 30 13.02 30 12 30 C4.63638601 22.0328111 0.53343813 10.66876258 0 0 Z " fill="#C45C3A" transform="translate(1,311)"/>
<path d="M0 0 C0 0.99 0 1.98 0 3 C-4.62 3.33 -9.24 3.66 -14 4 C-14 4.66 -14 5.32 -14 6 C-16.64 6 -19.28 6 -22 6 C-16.60227677 0.60227677 -7.32717522 -0.56362886 0 0 Z " fill="#D15A32" transform="translate(52,1)"/>
<path d="M0 0 C2.40967639 2.90916113 3.65397951 5.43697576 4.6875 9.0625 C4.93886719 9.91972656 5.19023437 10.77695312 5.44921875 11.66015625 C6 14 6 14 6 17 C4.1875 16.5 4.1875 16.5 2 15 C-0.4537357 10.52372901 -1.49853586 6.10999259 -1 1 C-0.67 0.67 -0.34 0.34 0 0 Z " fill="#D35E35" transform="translate(354,31)"/>
<path d="M0 0 C0.33 0 0.66 0 1 0 C1.03738281 0.85722656 1.07476562 1.71445313 1.11328125 2.59765625 C1.48629539 9.08517661 1.9391917 14.24568039 5 20 C5.28875 20.763125 5.5775 21.52625 5.875 22.3125 C7.4648199 24.69722984 9.34778201 25.0717237 12 26 C12.66 26.66 13.32 27.32 14 28 C12.68 28.33 11.36 28.66 10 29 C9.34 28.01 8.68 27.02 8 26 C7.01 26 6.02 26 5 26 C5 24.68 5 23.36 5 22 C4.01 22 3.02 22 2 22 C-0.3479743 14.66258031 -0.19355213 7.65606218 0 0 Z " fill="#CB6D4D" transform="translate(222,76)"/>
<path d="M0 0 C3.71599191 -0.20086443 4.77208445 -0.1519437 8 2 C8 3.32 8 4.64 8 6 C8.804375 6.2475 9.60875 6.495 10.4375 6.75 C13 8 13 8 13.8125 10.125 C13.874375 10.74375 13.93625 11.3625 14 12 C11 12 11 12 8.30078125 9.62890625 C7.29691517 8.61440318 6.30108274 7.59190164 5.3125 6.5625 C4.80138672 6.04623047 4.29027344 5.52996094 3.76367188 4.99804688 C0 1.15397613 0 1.15397613 0 0 Z " fill="#D0603A" transform="translate(231,65)"/>
<path d="M0 0 C3.5875213 1.33250791 6.8364623 2.830717 10 5 C10 5.66 10 6.32 10 7 C10.66 7 11.32 7 12 7 C12 7.99 12 8.98 12 10 C12.66 10 13.32 10 14 10 C13.67 11.32 13.34 12.64 13 14 C10.83031809 11.85714108 8.66416525 9.71091768 6.5 7.5625 C5.87996094 6.95083984 5.25992187 6.33917969 4.62109375 5.70898438 C4.03457031 5.12568359 3.44804687 4.54238281 2.84375 3.94140625 C2.02680664 3.13231812 2.02680664 3.13231812 1.19335938 2.30688477 C0 1 0 1 0 0 Z " fill="#D06744" transform="translate(251,85)"/>
<path d="M0 0 C1.04792525 3.43486611 1.13372185 6.60718037 1.125 10.1875 C1.12757812 11.25355469 1.13015625 12.31960937 1.1328125 13.41796875 C1 16 1 16 0 17 C-0.23363881 18.84891946 -0.41303635 20.70488031 -0.5625 22.5625 C-0.64628906 23.57441406 -0.73007812 24.58632813 -0.81640625 25.62890625 C-0.87699219 26.41136719 -0.93757812 27.19382812 -1 28 C-1.33 28 -1.66 28 -2 28 C-2.05859857 24.64590806 -2.09379582 21.29194983 -2.125 17.9375 C-2.14175781 16.99455078 -2.15851562 16.05160156 -2.17578125 15.08007812 C-2.21372771 9.63476062 -1.81252643 5.14500612 0 0 Z " fill="#D45930" transform="translate(3,37)"/>
<path d="M0 0 C2.475 0.495 2.475 0.495 5 1 C5 1.66 5 2.32 5 3 C6.32 3.33 7.64 3.66 9 4 C9 4.66 9 5.32 9 6 C9.598125 6.28875 10.19625 6.5775 10.8125 6.875 C13 8 13 8 16 10 C16 10.66 16 11.32 16 12 C9.43186037 9.94745637 3.90421514 5.60169999 0 0 Z " fill="#CF5E39" transform="translate(15,342)"/>
<path d="M0 0 C0.66 0.33 1.32 0.66 2 1 C1.67 1.33 1.34 1.66 1 2 C0.76518307 4.18292774 0.58636677 6.37203174 0.4375 8.5625 C0.31181641 10.35880859 0.31181641 10.35880859 0.18359375 12.19140625 C0.12300781 13.11824219 0.06242188 14.04507813 0 15 C-0.99 15 -1.98 15 -3 15 C-4.20186843 11.3943947 -3.66097664 9.97715732 -2.625 6.375 C-2.34914062 5.39273438 -2.07328125 4.41046875 -1.7890625 3.3984375 C-1 1 -1 1 0 0 Z " fill="#D26944" transform="translate(209,193)"/>
<path d="M0 0 C6.62177926 0.30656385 11.22125154 1.74288723 17 5 C13.19249826 6.26916725 11.6897429 5.47776092 7.9375 4.1875 C6.87402344 3.83042969 5.81054688 3.47335937 4.71484375 3.10546875 C2 2 2 2 0 0 Z " fill="#CF6743" transform="translate(31,354)"/>
<path d="M0 0 C0.33 0 0.66 0 1 0 C1 1.65 1 3.3 1 5 C-0.26457031 5.04898438 -1.52914062 5.09796875 -2.83203125 5.1484375 C-4.49220947 5.2234738 -6.15236464 5.29902127 -7.8125 5.375 C-8.64587891 5.4059375 -9.47925781 5.436875 -10.33789062 5.46875 C-11.14033203 5.50742188 -11.94277344 5.54609375 -12.76953125 5.5859375 C-13.50792236 5.6173584 -14.24631348 5.6487793 -15.00708008 5.68115234 C-17.31349588 5.90834614 -17.31349588 5.90834614 -20 8 C-20 6.68 -20 5.36 -20 4 C-13.4 4 -6.8 4 0 4 C0 2.68 0 1.36 0 0 Z " fill="#C26343" transform="translate(94,160)"/>
<path d="M0 0 C0.33 0.99 0.66 1.98 1 3 C1.66 3 2.32 3 3 3 C2.745504 4.48206495 2.47088238 5.96068615 2.1875 7.4375 C2.03667969 8.26121094 1.88585937 9.08492187 1.73046875 9.93359375 C1.48941406 10.61550781 1.24835938 11.29742187 1 12 C0.01 12.33 -0.98 12.66 -2 13 C-1.34 8.71 -0.68 4.42 0 0 Z " fill="#D75E38" transform="translate(211,200)"/>
<path d="M0 0 C0.33 0.66 0.66 1.32 1 2 C0.00390625 4.3828125 0.00390625 4.3828125 -1.4375 7.125 C-1.91058594 8.03507812 -2.38367188 8.94515625 -2.87109375 9.8828125 C-3.24363281 10.58148438 -3.61617188 11.28015625 -4 12 C-6 9 -6 9 -6 7 C-5.34 7 -4.68 7 -4 7 C-4 6.01 -4 5.02 -4 4 C-3.34 4 -2.68 4 -2 4 C-2 3.01 -2 2.02 -2 1 C-1.34 0.67 -0.68 0.34 0 0 Z " fill="#CC613B" transform="translate(356,323)"/>
<path d="M0 0 C0.99 0 1.98 0 3 0 C1.63629701 2.99220268 0.05091917 5.29026529 -2.125 7.75 C-2.93324219 8.67039062 -2.93324219 8.67039062 -3.7578125 9.609375 C-4.16773438 10.06828125 -4.57765625 10.5271875 -5 11 C-5.33 9.68 -5.66 8.36 -6 7 C-4.68 6.67 -3.36 6.34 -2 6 C-2 5.01 -2 4.02 -2 3 C-1.34 3 -0.68 3 0 3 C0 2.01 0 1.02 0 0 Z " fill="#CE6646" transform="translate(348,335)"/>
<path d="M0 0 C0.33 0.66 0.66 1.32 1 2 C0.54625 2.53625 0.0925 3.0725 -0.375 3.625 C-2.21688312 6.31698302 -3.07971933 8.88520388 -4 12 C-4.66 12 -5.32 12 -6 12 C-6.33 13.32 -6.66 14.64 -7 16 C-7.33 15.34 -7.66 14.68 -8 14 C-7.109375 11.7578125 -7.109375 11.7578125 -5.75 9.125 C-5.31171875 8.26132812 -4.8734375 7.39765625 -4.421875 6.5078125 C-3.09896004 4.17453941 -1.66149789 2.10130615 0 0 Z " fill="#CB6A49" transform="translate(12,21)"/>
<path d="M0 0 C2.09624272 4.19248543 2.36281926 4.80670998 1 9 C-0.4375 11.3125 -0.4375 11.3125 -2 13 C-2.66 13 -3.32 13 -4 13 C-4 12.34 -4 11.68 -4 11 C-3.34 11 -2.68 11 -2 11 C-1.34 7.37 -0.68 3.74 0 0 Z " fill="#D7714F" transform="translate(204,209)"/>
<path d="M0 0 C0.33 0.66 0.66 1.32 1 2 C-0.375 4 -0.375 4 -2 6 C-2.66 6 -3.32 6 -4 6 C-4.33 6.66 -4.66 7.32 -5 8 C-5 7.34 -5 6.68 -5 6 C-5.66 5.67 -6.32 5.34 -7 5 C-4.53846154 1.18461538 -4.53846154 1.18461538 -1.8125 0.25 C-1.214375 0.1675 -0.61625 0.085 0 0 Z " fill="#D5552E" transform="translate(20,15)"/>
<path d="M0 0 C1.01126953 0.23009766 1.01126953 0.23009766 2.04296875 0.46484375 C5.46877952 1.08483857 8.83893447 1.3352574 12.3125 1.5625 C13.56675781 1.64628906 14.82101563 1.73007813 16.11328125 1.81640625 C17.54220703 1.90728516 17.54220703 1.90728516 19 2 C19 2.33 19 2.66 19 3 C13.06 3 7.12 3 1 3 C0.67 2.01 0.34 1.02 0 0 Z " fill="#CF5129" transform="translate(233,104)"/>
<path d="M0 0 C0.33 0 0.66 0 1 0 C3.21538462 6.4 3.21538462 6.4 2.125 9.4375 C1.75375 9.953125 1.3825 10.46875 1 11 C-2 5.25 -2 5.25 -2 3 C-1.34 3 -0.68 3 0 3 C0 2.01 0 1.02 0 0 Z " fill="#DD4F1C" transform="translate(194,207)"/>
<path d="M0 0 C0.99 0 1.98 0 3 0 C3 2.97 3 5.94 3 9 C2.34 9 1.68 9 1 9 C0.67 6.03 0.34 3.06 0 0 Z " fill="#CB5631" transform="translate(127,102)"/>
<path d="M0 0 C1.66611905 -0.042721 3.33382885 -0.04063832 5 0 C6 1 6 1 6.0625 3.5625 C6.041875 4.366875 6.02125 5.17125 6 6 C3.97945196 4.35830472 1.97956942 2.69088222 0 1 C0 0.67 0 0.34 0 0 Z " fill="#D26742" transform="translate(231,65)"/>
<path d="M0 0 C1.98 0.66 3.96 1.32 6 2 C6.33 3.65 6.66 5.3 7 7 C5.83040013 6.02433888 4.66438823 5.044375 3.5 4.0625 C2.8503125 3.51722656 2.200625 2.97195312 1.53125 2.41015625 C1.0259375 1.94480469 0.520625 1.47945313 0 1 C0 0.67 0 0.34 0 0 Z " fill="#D06D4C" transform="translate(244,78)"/>
<path d="M0 0 C0.66 0 1.32 0 2 0 C2 0.66 2 1.32 2 2 C2.99 2.33 3.98 2.66 5 3 C5.33 3.99 5.66 4.98 6 6 C6.66 6.66 7.32 7.32 8 8 C7.01 8 6.02 8 5 8 C3.61328125 6.50390625 3.61328125 6.50390625 2.3125 4.5625 C1.87550781 3.92441406 1.43851563 3.28632813 0.98828125 2.62890625 C0 1 0 1 0 0 Z " fill="#C96948" transform="translate(8,333)"/>
</svg>
